<svg xmlns="http://www.w3.org/2000/svg" width="283" height="64" viewBox="0 0 283 64" fill="none">
  <path d="M141.534 16.253H158.4V47.4814H141.534V16.253Z" fill="white"/>
  <path d="M134.681 16.253H117.815V38.0927C117.815 44.603 112.366 47.7803 107.555 47.7803C102.63 47.7803 97.2965 44.603 97.2965 38.0927V16.253H80.4307V38.0927C80.4307 52.2225 90.2437 59.1964 99.5416 59.1964C108.663 59.1964 115.158 53.6082 117.552 49.4534H117.815V59.1964H134.681V16.253Z" fill="white"/>
  <path d="M68.4498 16.253H51.6099V47.4814H68.4498V16.253Z" fill="white"/>
  <path d="M60.0949 3.99995C60.0949 9.49995 55.5365 14.0309 50.0877 14.0309C44.6758 14.0309 40.1174 9.49995 40.1174 3.99995C40.1174 -1.4553 44.6758 -6 50.0877 -6C55.5365 -6 60.0949 -1.4553 60.0949 3.99995Z" fill="white"/>
  <path d="M200.447 16.253H183.607V22.2722H183.344C180.95 18.0995 175.964 15.0936 169.336 15.0936C158.849 15.0936 150.494 24.0871 150.494 36.2397C150.494 48.5179 158.849 57.3463 169.336 57.3463C175.964 57.3463 180.95 54.3404 183.344 50.1677H183.607V56.8462C183.607 65.2078 177.09 69.7387 170.125 69.7387C164.203 69.7387 159.14 66.5936 157.07 61.8952H139.894C142.425 72.0781 154.514 81.5225 170.387 81.5225C185.59 81.5225 200.447 72.9499 200.447 52.8136V16.253Z" fill="white"/>
  <path d="M213.708 47.3167C213.708 60.3513 224.086 67.2225 239.059 67.2225C254.139 67.2225 264.431 60.4513 264.431 47.3167V16.253H247.635V47.4963C247.635 52.7816 243.786 55.7483 239.059 55.7483C234.331 55.7483 230.521 52.7816 230.521 47.4963V16.253H213.708V47.3167Z" fill="white"/>
  <path d="M67.6128 16.253H50.7732V47.4814H67.6128V16.253Z" fill="white"/>
  <path d="M40.4645 16.253H23.6235V47.4814H40.4645V16.253Z" fill="white"/>
  <path d="M27.3655 3.99995C27.3655 9.49995 22.8095 14.0309 17.3605 14.0309C11.9495 14.0309 7.39246 9.49995 7.39246 3.99995C7.39246 -1.4553 11.9495 -6 17.3605 -6C22.8095 -6 27.3655 -1.4553 27.3655 3.99995Z" fill="white"/>
  <path d="M15.0073 47.2964C15.0073 50.8306 12.0558 53.746 8.52437 53.746C4.99292 53.746 2.04138 50.8306 2.04138 47.2964C2.04138 43.7644 4.99292 40.8469 8.52437 40.8469C12.0558 40.8469 15.0073 43.7644 15.0073 47.2964Z" fill="white"/>
  <path d="M280.664 6.21594L252.661 59.7226H284.225L256.213 6.21594H280.664Z" fill="white"/>
</svg>
